<?xml version="1.0" encoding="utf-8"?>
<!-- Generator: Adobe Illustrator 24.0.1, SVG Export Plug-In . SVG Version: 6.00 Build 0)  -->
<svg version="1.1" id="Layer_1" xmlns="http://www.w3.org/2000/svg" xmlns:xlink="http://www.w3.org/1999/xlink" x="0px" y="0px"
	 viewBox="0 0 100 125" style="enable-background:new 0 0 100 125;" xml:space="preserve">
<style type="text/css">
	.st0{fill:#FFFFFF;}
</style>
<path class="st0" d="M66.6,42.9C60.9,34.7,55,26.2,51.4,17c-0.2-0.6-0.8-1-1.4-1c0,0,0,0,0,0c-0.6,0-1.2,0.4-1.4,1
	c-3.5,9.1-9.4,17.6-15.1,25.7C26,53.4,19,63.5,19,73.2c0,17,13.9,30.8,31,30.8s31-13.8,31-30.8C81,63.5,74,53.5,66.6,42.9z M50,101
	c-15.4,0-28-12.5-28-27.8c0-8.7,6.8-18.4,13.9-28.7c5.1-7.3,10.4-14.9,14.1-23c3.7,8.3,9,15.9,14.2,23.2C71.3,54.8,78,64.5,78,73.2
	C78,88.5,65.4,101,50,101z"/>
<path class="st0" d="M60.6,59.1c-0.7-0.5-1.6-0.4-2.1,0.3L39.9,83.7c-0.5,0.7-0.4,1.6,0.3,2.1c0.3,0.2,0.6,0.3,0.9,0.3
	c0.5,0,0.9-0.2,1.2-0.6l18.6-24.3C61.4,60.5,61.3,59.6,60.6,59.1z"/>
<path class="st0" d="M49.3,66.3c0-3.8-3.1-6.9-6.9-6.9c-3.8,0-6.9,3.1-6.9,6.9c0,3.8,3.1,6.9,6.9,6.9C46.2,73.2,49.3,70.1,49.3,66.3
	z M38.5,66.3c0-2.2,1.8-3.9,3.9-3.9s3.9,1.8,3.9,3.9c0,2.2-1.8,3.9-3.9,3.9S38.5,68.4,38.5,66.3z"/>
<path class="st0" d="M57.5,73.2c-3.8,0-6.9,3.1-6.9,6.9s3.1,6.9,6.9,6.9c3.8,0,6.9-3.1,6.9-6.9S61.3,73.2,57.5,73.2z M57.5,84
	c-2.2,0-3.9-1.8-3.9-3.9c0-2.2,1.8-3.9,3.9-3.9s3.9,1.8,3.9,3.9C61.4,82.2,59.7,84,57.5,84z"/>
</svg>
