<?xml version="1.0" encoding="utf-8"?>
<!-- Generator: Adobe Illustrator 24.0.1, SVG Export Plug-In . SVG Version: 6.00 Build 0)  -->
<svg version="1.1" id="f3bef9ad-0239-4908-ae6d-7464f49c7d52"
	 xmlns="http://www.w3.org/2000/svg" xmlns:xlink="http://www.w3.org/1999/xlink" x="0px" y="0px" viewBox="0 0 859.1 632.7"
	 style="enable-background:new 0 0 859.1 632.7;" xml:space="preserve">
<style type="text/css">
	.st0{fill:#CCCCCC;}
	.st1{fill:#DEF9FC;stroke:#FFFFFF;stroke-miterlimit:10;}
	.st2{fill:#EDF8F9;stroke:#FFFFFF;stroke-width:3;stroke-miterlimit:10;}
	.st3{fill:#A0616A;}
	.st4{fill:#4EA6AF;}
	.st5{fill:#2F2E41;}
	.st6{fill:#58BAC9;}
	.st7{fill:#FFDA00;}
	.st8{fill:#63C4CE;}
</style>
<rect id="ff921942-c1a5-4092-8e51-cfff0188952a" y="629.2" class="st0" width="859.1" height="3.4"/>
<path class="st1" d="M399.4,242.6h-8.1l-0.1-1.7c-3.2-53.2-46.8-94.8-99.2-94.8c-37.7,0-72.8,22.3-89.3,56.9l-0.5,1h-17.5
	c-44.3,0-80.4,36.7-80.4,81.8c0,45.1,36.1,81.8,80.4,81.8h214.7c33.9,0,61.5-28.1,61.5-62.5C460.9,270.7,433.3,242.6,399.4,242.6z"
	/>
<path class="st2" d="M465.6,290.4h-6.4l-0.1-1.3c-2.6-42.1-37-75-78.5-75c-29.8,0-57.6,17.7-70.7,45l-0.4,0.8h-13.9
	c-35.1,0-63.6,29-63.6,64.7c0,35.7,28.5,64.7,63.6,64.7h169.9c26.8,0,48.6-22.2,48.6-49.5C514.2,312.6,492.4,290.4,465.6,290.4z"/>
<g>
	<path id="a8ec5313-8437-40fa-9ae6-49ad9c080ae2" class="st3" d="M237,385.9c0,0.7,0,1.4,0.1,2.1l-47.6,40l-14.2-5.1l-10.6,20.4
		l31,14.8l52.1-58.4c7.1,1.3,14-3.4,15.3-10.6s-3.4-14-10.6-15.3c-7.1-1.3-14,3.4-15.3,10.6C237.1,384.8,237,385.4,237,385.9
		L237,385.9z"/>
	<path id="b5ad9c77-52a4-4655-bf33-f0307720c346" class="st4" d="M173.1,453l-46-16.6c-8.8-3.2-13.3-12.9-10.2-21.7
		s12.9-13.3,21.7-10.2l46,16.6c2.9,1.1,4.4,4.3,3.4,7.2l0,0l-7.7,21.2C179.3,452.6,176.1,454.1,173.1,453L173.1,453z"/>
	<path id="ee570c5a-79aa-496e-9580-2e913ce96aae" class="st3" d="M139.5,614.7h15.4l7.3-59.3h-22.7L139.5,614.7z"/>
	<path id="ab71c019-c25e-46eb-a51f-1c429aa2c12d" class="st5" d="M184.5,629l-48.3,0l0-18.7l29.6,0
		C176.1,610.3,184.5,618.7,184.5,629L184.5,629z"/>
	<path id="f36d9583-efe1-4c6b-b146-57ada20cd73c" class="st3" d="M101.5,594.9l12.6,8.8l40.1-44.3l-18.6-13L101.5,594.9z"/>
	<path id="efce1b5c-13fd-487e-9a00-7bbfe0293cc7" class="st5" d="M128.6,629.4l-39.5-27.8l10.7-15.3l24.2,17
		C132.5,609.3,134.5,620.9,128.6,629.4L128.6,629.4L128.6,629.4z"/>
	<path id="b962c087-78c3-438a-b2f2-2ecccfec7131" class="st3" d="M173.1,507.9c0,0,38.3-4.5,31.5,20.4S121,574.7,121,574.7
		L173.1,507.9z"/>
	<circle id="b4ce5f2d-2188-4402-bc9c-1bcfffccb703" class="st3" cx="146.7" cy="350.2" r="30.8"/>
	<path id="bec54b22-7d61-4f61-9a6e-d6909ce0cfb7" class="st6" d="M48.5,569.6c-17.5-20.4-23.6-51.7,4.3-77.7
		c6.9-6.3,14.7-11.5,23.2-15.4l22.5-63c4.8-13.5,17.4-22.6,31.7-22.8c13.9-0.6,26.6,7.6,31.9,20.5c2.7,6.4,3.1,13.6,0.9,20.2
		c-6.7,20.9-15.5,41-26.3,60.1l1.2,9.3l56.9,5.1l-0.5,0.9c-0.3,0.5-28.1,42.9-63.8,71.1c-12.2,9.6-24.8,13.6-36.7,13.6
		C75.7,591.4,59.3,582.2,48.5,569.6z"/>
	<path id="f5e0fb0e-7954-451a-aeef-f3006d7ce30b" class="st5" d="M43.1,359.8c5.4-6.5,7.8-15,9.7-23.2c3-13.1,5.3-26.6,11.9-38.3
		c6.6-11.7,18.7-21.3,32.1-20.6c13.3,0.7,24.1,11.4,29.8,23.6c2.8-1.1,5.9-0.9,8.6,0.4c4.1,2.3,5.7,8.7,2.2,11.9
		c7.3-3.5,15.7-3.7,23.2-0.6c9.7,4.1,16.2,13.3,17,23.8c0.3,4.2-1.2,8.4-4.1,11.4c-5.9,6.1-14.3,4-21.7,2.4
		c-7-1.5-15.6-1.9-19.5,4.8c-1.6,2.8-2,6.1-1.2,9.2c1.5,6.7,6.5,11.3,11.2,15.8l0.8,1.5c-16.9,3.3-35.4-8.3-39.8-24.9
		s5.8-35.9,22.2-41.4l0,0c-3.4,0.1-6.2-2.5-6.3-5.9c0-1.1,0.2-2.3,0.8-3.2c-4.5-2.5-9.6-3.8-14.8-3.7c-8.4,0.6-15.7,6.6-20.1,13.8
		c-4.4,7.2-6.4,15.6-8.4,23.8c-2,8.2-4.2,16.6-8.9,23.6c-11.5,17.2-34.8,21.9-52.1,10.4c-3-2-5.8-4.5-8.1-7.3
		C19.7,372.9,34.2,369.9,43.1,359.8z"/>
	<g>
		<path class="st7" d="M280.6,443.6c-21.4,0-38.8-17.4-38.8-38.8c0-21.4,17.4-38.8,38.8-38.8c21.4,0,38.8,17.4,38.8,38.8
			C319.4,426.2,302,443.6,280.6,443.6z M280.6,372.4c-17.9,0-32.3,14.5-32.3,32.3s14.5,32.3,32.3,32.3s32.3-14.5,32.3-32.3v0
			C312.9,386.9,298.5,372.5,280.6,372.4L280.6,372.4z"/>
		<path class="st7" d="M279.3,356.3c-1.8,0-3.2-1.4-3.2-3.2v-37.2c0-1.8,1.4-3.2,3.2-3.2s3.2,1.4,3.2,3.2V353
			C282.6,354.8,281.1,356.3,279.3,356.3z"/>
		<path class="st7" d="M228.9,406.7h-37.2c-1.8,0-3.2-1.4-3.2-3.2s1.4-3.2,3.2-3.2h37.2c1.8,0,3.2,1.4,3.2,3.2
			S230.7,406.7,228.9,406.7z"/>
		<path class="st7" d="M364.7,406.7h-37.2c-1.8,0-3.2-1.4-3.2-3.2s1.4-3.2,3.2-3.2h37.2c1.8,0,3.2,1.4,3.2,3.2
			S366.5,406.7,364.7,406.7z"/>
		<path class="st7" d="M326.5,371.4c-1.8,0-3.2-1.4-3.2-3.2c0-0.9,0.4-1.7,1-2.3l15.6-15.1c1.3-1.2,3.3-1.2,4.6,0.1
			c1.2,1.3,1.2,3.3-0.1,4.6c0,0,0,0,0,0l-15.6,15.1C328.1,371.1,327.3,371.4,326.5,371.4z"/>
		<path class="st7" d="M231.5,371.4c-0.8,0-1.6-0.3-2.3-0.9l-15.6-15.1c-1.3-1.2-1.3-3.3-0.1-4.6c1.2-1.3,3.3-1.3,4.6-0.1
			c0,0,0,0,0,0l15.6,15.1c1.3,1.2,1.3,3.3,0.1,4.6C233.2,371,232.4,371.4,231.5,371.4L231.5,371.4z"/>
		<path class="st7" d="M219.2,459.8c-1.8,0-3.2-1.4-3.2-3.2c0-0.8,0.3-1.6,0.9-2.3l15.6-16c1.2-1.3,3.3-1.3,4.6-0.1
			c1.3,1.2,1.3,3.3,0.1,4.6l0,0l-15.6,16C220.9,459.4,220.1,459.8,219.2,459.8z"/>
		<path class="st7" d="M345.3,463c-0.9,0-1.7-0.4-2.3-1l-18.8-19.3c-1.2-1.3-1.2-3.3,0-4.6c1.3-1.2,3.3-1.2,4.6,0c0,0,0,0,0,0
			l18.8,19.3c1.2,1.3,1.2,3.3-0.1,4.6C347,462.7,346.1,463,345.3,463L345.3,463z"/>
		<path class="st7" d="M279.3,495.3c-1.8,0-3.2-1.4-3.2-3.2v-37.2c0-1.8,1.4-3.2,3.2-3.2s3.2,1.4,3.2,3.2l0,0v37.2
			C282.6,493.9,281.1,495.3,279.3,495.3z"/>
	</g>
	<path id="b0998da5-27dc-40b2-8d45-277f647e44e1" class="st3" d="M238.5,428.9c-0.3,0.6-0.6,1.2-0.8,1.9l-60.1,15.9L167,436.1
		l-18.2,14l21.8,26.6l71.9-30.7c5.9,4.2,14.1,2.8,18.3-3.1c4.2-5.9,2.8-14.1-3.1-18.3c-5.9-4.2-14.1-2.8-18.3,3.1
		C239.1,428,238.8,428.4,238.5,428.9L238.5,428.9z"/>
	<path id="a2d8cb05-8bad-48ca-a39c-34dd34963d12" class="st8" d="M152.2,462.5l-34.6-34.6c-6.6-6.6-6.6-17.3,0-23.9
		c6.6-6.6,17.3-6.6,23.9,0c0,0,0,0,0,0l0,0l34.6,34.6c2.2,2.2,2.2,5.8,0,8l0,0l-16,16C158,464.7,154.4,464.7,152.2,462.5
		L152.2,462.5z"/>
</g>
</svg>
