<?xml version="1.0" encoding="utf-8"?>
<!-- Generator: Adobe Illustrator 24.0.1, SVG Export Plug-In . SVG Version: 6.00 Build 0)  -->
<svg version="1.1" id="Layer_1" xmlns="http://www.w3.org/2000/svg" xmlns:xlink="http://www.w3.org/1999/xlink" x="0px" y="0px"
	 viewBox="0 0 100 125" style="enable-background:new 0 0 100 125;" xml:space="preserve">
<style type="text/css">
	.st0{fill:#FFFFFF;}
</style>
<title>Artboard 11</title>
<path class="st0" d="M55,50H20v6h35c7.2,0,13-5.8,13-13s-5.8-13-13-13h-6v6h6c3.9,0,7,3.1,7,7S58.9,50,55,50z"/>
<path class="st0" d="M67,64H52.5c1.3,1.8,2.3,3.8,2.8,6H67c3.9,0,7,3.1,7,7s-3.1,7-7,7h-4v6h4c7.2,0,13-5.8,13-13S74.2,64,67,64z"/>
<path class="st0" d="M20,70h17c2.8,0,5,2.2,5,5s-2.2,5-5,5h-3v6h3c6.1,0,11-4.9,11-11c0-6.1-4.9-11-11-11H20V70z"/>
</svg>
